<svg width="42" height="42" viewBox="0 0 42 42" xmlns="http://www.w3.org/2000/svg">
    <g fill="none" fill-rule="evenodd">
        <circle stroke="#C7CAD1" fill="#FFF" cx="21" cy="21" r="20.5"/>
        <path d="M32.52 21.273c0-.851-.076-1.67-.218-2.455H21v4.642h6.458a5.52 5.52 0 0 1-2.394 3.622v3.01h3.878c2.269-2.088 3.578-5.165 3.578-8.82z" fill="#4285F4"/>
        <path d="M21 33c3.24 0 5.956-1.075 7.942-2.907l-3.878-3.011c-1.075.72-2.45 1.145-4.064 1.145-3.125 0-5.77-2.11-6.715-4.947h-4.009v3.11A11.995 11.995 0 0 0 21 33z" fill="#34A853"/>
        <path d="M14.285 23.28A7.213 7.213 0 0 1 13.91 21c0-.79.136-1.56.376-2.28v-3.11h-4.009A11.995 11.995 0 0 0 9 21c0 1.936.464 3.77 1.276 5.39l4.01-3.11z" fill="#FBBC05"/>
        <path d="M21 13.773c1.762 0 3.344.605 4.587 1.794l3.442-3.442C26.951 10.19 24.235 9 21 9c-4.69 0-8.75 2.69-10.724 6.61l4.01 3.11c.943-2.836 3.589-4.947 6.714-4.947z" fill="#EA4335"/>
        <path d="M9 9h24v24H9z"/>
    </g>
</svg>
